<svg xmlns="http://www.w3.org/2000/svg" viewBox="0 0 1200 500">
  <defs>
    <filter id="gf">
      <feGaussianBlur stdDeviation="3"/>
    </filter>
  </defs>
  <rect width="1200" height="500" fill="#08090c"/>
  <text x="600" y="58" text-anchor="middle" font-family="monospace" font-size="11" letter-spacing="6" fill="#363d48">CONCEPT F</text>

  <g transform="translate(600,260)" text-anchor="middle">
    <text x="-420" y="0" font-family="sans-serif" font-size="80" font-weight="300" fill="#f2f4f7">I</text>
    <circle cx="-355" cy="-8" r="3" fill="#a8d8ea"/><circle cx="-355" cy="-8" r="6" fill="#a8d8ea" opacity=".2" filter="url(#gf)"/>
    <text x="-300" y="0" font-family="sans-serif" font-size="80" font-weight="300" fill="#f2f4f7">D</text>
    <circle cx="-230" cy="-8" r="3" fill="#a8d8ea"/><circle cx="-230" cy="-8" r="6" fill="#a8d8ea" opacity=".2" filter="url(#gf)"/>
    <text x="-170" y="0" font-family="sans-serif" font-size="80" font-weight="300" fill="#f2f4f7">A</text>
    <circle cx="-100" cy="-8" r="3" fill="#a8d8ea"/><circle cx="-100" cy="-8" r="6" fill="#a8d8ea" opacity=".2" filter="url(#gf)"/>
    <text x="-40" y="0" font-family="sans-serif" font-size="80" font-weight="300" fill="#f2f4f7">T</text>
    <circle cx="25" cy="-8" r="3" fill="#a8d8ea"/><circle cx="25" cy="-8" r="6" fill="#a8d8ea" opacity=".2" filter="url(#gf)"/>
    <text x="85" y="0" font-family="sans-serif" font-size="80" font-weight="300" fill="#f2f4f7">S</text>
    <circle cx="140" cy="-8" r="3" fill="#a8d8ea"/><circle cx="140" cy="-8" r="6" fill="#a8d8ea" opacity=".2" filter="url(#gf)"/>
    <text x="200" y="0" font-family="sans-serif" font-size="80" font-weight="300" fill="#f2f4f7">U</text>
    <circle cx="265" cy="-8" r="3" fill="#a8d8ea"/><circle cx="265" cy="-8" r="6" fill="#a8d8ea" opacity=".2" filter="url(#gf)"/>
    <text x="320" y="0" font-family="sans-serif" font-size="80" font-weight="300" fill="#f2f4f7">K</text>
    <circle cx="375" cy="-8" r="3" fill="#a8d8ea"/><circle cx="375" cy="-8" r="6" fill="#a8d8ea" opacity=".2" filter="url(#gf)"/>
    <text x="430" y="0" font-family="sans-serif" font-size="80" font-weight="300" fill="#f2f4f7">A</text>
  </g>

  <text x="600" y="380" text-anchor="middle" font-family="monospace" font-size="11" letter-spacing="6" fill="#6b7280">DOT CONSTELLATION</text>
  <text x="600" y="420" text-anchor="middle" font-family="sans-serif" font-size="14" fill="#4a5060">文字の間に光るドット — 星座のように名前が浮かび上がる</text>
</svg>