<svg xmlns="http://www.w3.org/2000/svg" viewBox="0 0 800 450">
  <defs>
    <radialGradient id="center-glow" cx="50%" cy="50%" r="35%">
      <stop offset="0%" stop-color="#a8d8ea" stop-opacity=".06"/>
      <stop offset="100%" stop-color="#08090c" stop-opacity="0"/>
    </radialGradient>
  </defs>
  <rect width="800" height="450" fill="#08090c"/>
  <rect width="800" height="450" fill="url(#center-glow)"/>
  <!-- Grid -->
  <g stroke="rgba(255,255,255,.018)" stroke-width=".5">
    <line x1="80" y1="0" x2="80" y2="450"/><line x1="160" y1="0" x2="160" y2="450"/>
    <line x1="240" y1="0" x2="240" y2="450"/><line x1="320" y1="0" x2="320" y2="450"/>
    <line x1="400" y1="0" x2="400" y2="450"/><line x1="480" y1="0" x2="480" y2="450"/>
    <line x1="560" y1="0" x2="560" y2="450"/><line x1="640" y1="0" x2="640" y2="450"/>
    <line x1="720" y1="0" x2="720" y2="450"/>
    <line x1="0" y1="80" x2="800" y2="80"/><line x1="0" y1="160" x2="800" y2="160"/>
    <line x1="0" y1="240" x2="800" y2="240"/><line x1="0" y1="320" x2="800" y2="320"/>
    <line x1="0" y1="400" x2="800" y2="400"/>
  </g>
  <!-- Crystal structures from center (400, 225) -->
  <!-- Branch group 1 - upward -->
  <g stroke="rgba(54,61,72,.6)" stroke-width=".8" fill="none">
    <line x1="400" y1="225" x2="400" y2="140"/>
    <line x1="400" y1="140" x2="360" y2="90"/>
    <line x1="400" y1="140" x2="445" y2="85"/>
    <line x1="360" y1="90" x2="340" y2="50"/>
    <line x1="360" y1="90" x2="320" y2="80"/>
    <line x1="445" y1="85" x2="470" y2="45"/>
    <line x1="445" y1="85" x2="485" y2="70"/>
    <line x1="340" y1="50" x2="325" y2="25"/>
    <line x1="470" y1="45" x2="490" y2="20"/>
  </g>
  <!-- Branch group 2 - right -->
  <g stroke="rgba(107,114,128,.35)" stroke-width=".6" fill="none">
    <line x1="400" y1="225" x2="500" y2="200"/>
    <line x1="500" y1="200" x2="570" y2="170"/>
    <line x1="500" y1="200" x2="540" y2="240"/>
    <line x1="570" y1="170" x2="620" y2="140"/>
    <line x1="570" y1="170" x2="610" y2="180"/>
    <line x1="540" y1="240" x2="590" y2="260"/>
    <line x1="620" y1="140" x2="660" y2="120"/>
    <line x1="620" y1="140" x2="650" y2="155"/>
    <line x1="590" y1="260" x2="630" y2="280"/>
    <line x1="590" y1="260" x2="610" y2="240"/>
  </g>
  <!-- Branch group 3 - down-right (accent highlighted) -->
  <g stroke="rgba(168,216,234,.5)" stroke-width=".7" fill="none">
    <line x1="400" y1="225" x2="450" y2="310"/>
    <line x1="450" y1="310" x2="490" y2="370"/>
    <line x1="450" y1="310" x2="510" y2="330"/>
    <line x1="490" y1="370" x2="520" y2="410"/>
    <line x1="490" y1="370" x2="460" y2="400"/>
    <line x1="510" y1="330" x2="560" y2="350"/>
    <line x1="510" y1="330" x2="540" y2="310"/>
    <line x1="560" y1="350" x2="595" y2="370"/>
  </g>
  <!-- Branch group 4 - down-left -->
  <g stroke="rgba(54,61,72,.4)" stroke-width=".5" fill="none">
    <line x1="400" y1="225" x2="340" y2="310"/>
    <line x1="340" y1="310" x2="310" y2="370"/>
    <line x1="340" y1="310" x2="290" y2="320"/>
    <line x1="310" y1="370" x2="280" y2="410"/>
    <line x1="290" y1="320" x2="250" y2="340"/>
    <line x1="290" y1="320" x2="260" y2="300"/>
    <line x1="250" y1="340" x2="220" y2="365"/>
    <line x1="260" y1="300" x2="230" y2="280"/>
  </g>
  <!-- Branch group 5 - left -->
  <g stroke="rgba(107,114,128,.25)" stroke-width=".6" fill="none">
    <line x1="400" y1="225" x2="300" y2="210"/>
    <line x1="300" y1="210" x2="230" y2="185"/>
    <line x1="300" y1="210" x2="270" y2="250"/>
    <line x1="230" y1="185" x2="180" y2="165"/>
    <line x1="230" y1="185" x2="210" y2="155"/>
    <line x1="270" y1="250" x2="230" y2="270"/>
    <line x1="180" y1="165" x2="140" y2="150"/>
    <line x1="210" y1="155" x2="175" y2="130"/>
  </g>
  <!-- Branch group 6 - upper-left (accent) -->
  <g stroke="rgba(168,216,234,.3)" stroke-width=".5" fill="none">
    <line x1="400" y1="225" x2="340" y2="160"/>
    <line x1="340" y1="160" x2="290" y2="120"/>
    <line x1="340" y1="160" x2="310" y2="140"/>
    <line x1="290" y1="120" x2="250" y2="90"/>
    <line x1="290" y1="120" x2="270" y2="110"/>
    <line x1="250" y1="90" x2="220" y2="60"/>
  </g>
  <!-- Secondary crystal from (600, 150) -->
  <g stroke="rgba(54,61,72,.35)" stroke-width=".4" fill="none">
    <line x1="620" y1="100" x2="650" y2="60"/>
    <line x1="620" y1="100" x2="670" y2="90"/>
    <line x1="620" y1="100" x2="660" y2="130"/>
    <line x1="620" y1="100" x2="590" y2="70"/>
    <line x1="650" y1="60" x2="680" y2="35"/>
    <line x1="670" y1="90" x2="710" y2="80"/>
    <line x1="590" y1="70" x2="565" y2="45"/>
  </g>
  <!-- Secondary crystal from (180, 350) -->
  <g stroke="rgba(168,216,234,.15)" stroke-width=".4" fill="none">
    <line x1="170" y1="360" x2="130" y2="330"/>
    <line x1="170" y1="360" x2="140" y2="390"/>
    <line x1="170" y1="360" x2="210" y2="380"/>
    <line x1="170" y1="360" x2="200" y2="340"/>
    <line x1="130" y1="330" x2="100" y2="310"/>
    <line x1="140" y1="390" x2="110" y2="415"/>
    <line x1="210" y1="380" x2="240" y2="400"/>
  </g>
  <!-- Node markers (diamonds and dots) -->
  <g fill="rgba(168,216,234,.25)">
    <rect x="398" y="223" width="4" height="4" transform="rotate(45 400 225)"/>
    <circle cx="400" cy="140" r="2"/>
    <circle cx="450" cy="310" r="2"/>
    <circle cx="340" cy="160" r="1.5" fill="rgba(168,216,234,.2)"/>
  </g>
  <g fill="rgba(107,114,128,.15)">
    <circle cx="500" cy="200" r="1.5"/>
    <circle cx="300" cy="210" r="1.5"/>
    <circle cx="340" cy="310" r="1.5"/>
    <circle cx="570" cy="170" r="1"/>
    <circle cx="290" cy="120" r="1"/>
    <rect x="619" y="99" width="2" height="2" transform="rotate(45 620 100)"/>
    <rect x="169" y="359" width="2" height="2" transform="rotate(45 170 360)"/>
  </g>
</svg>
